<svg width="1280" height="320" xmlns="http://www.w3.org/2000/svg">
	<g clip-path="url(#clip0)" fill="#eaecf0">
		<path fill-rule="evenodd" clip-rule="evenodd" d="M1126.61 246.383l37.49-6.61.444 2.522c-6.54 1.434-9.523 3.787-8.946 7.06.409 2.317 3.793 7.296 10.154 14.936l26.426 31.887 8.473-38.04c1.776-7.998 2.44-13.27 1.991-15.814-.625-3.544-3.872-5.22-9.742-5.03l-.445-2.521 28.97-5.108.444 2.522c-6.672 2.02-11.035 7.568-13.09 16.645l-10.25 45.101c-2.69 11.58-5.067 19.893-7.128 24.942-2.062 5.05-4.608 8.942-7.64 11.679-2.994 2.683-6.309 4.345-9.944 4.986-3.135.553-5.914.34-8.336-.639-2.368-.94-3.756-2.57-4.165-4.888-.296-1.681.027-3.167.971-4.458.936-1.336 2.38-2.177 4.335-2.521 1.908-.337 4.317.035 7.225 1.115 1.94.642 3.365.883 4.274.722 3.59-.632 6.954-5.068 10.093-13.306l-43.932-53.047c-3.092-3.718-5.858-6.253-8.299-7.603-2.394-1.358-5.37-2.028-8.928-2.01l-.445-2.522z"/>
		<path d="M1097.213 217.883c-.164-.933-.734-1.435-1.221-1.469-11.548.712-12.818-1.711-13.868-7.664l-9.693-54.974c-1.07-6.07-.686-8.665 10.389-12.061.467-.083.81-.865.646-1.8-.144-.816-.755-1.55-1.222-1.469-7.82 1.38-10.731 2.615-17.968 3.89-7.237 1.277-9.46.947-17.164 2.305-.584.103-.79.982-.646 1.799.165.934.638 1.572 1.222 1.47 11.569-.596 11.767 1.896 12.837 7.965l4.446 25.211-44.586 7.862-4.446-25.211c-1.07-6.07-1.736-8.48 9.34-11.876.583-.103.81-.865.645-1.799-.144-.817-.639-1.572-1.222-1.47-7.704 1.359-9.68 2.43-16.918 3.706-7.236 1.276-10.51 1.131-18.214 2.49-.467.082-.79.981-.646 1.798.165.934.755 1.552 1.222 1.47 11.569-.596 12.818 1.71 13.888 7.78l9.693 54.974c1.05 5.953.686 8.665-10.41 11.945-.446.199-.81.865-.645 1.799.165.933.755 1.551 1.222 1.47 7.703-1.36 10.731-2.615 17.968-3.891 7.236-1.276 9.46-.946 17.164-2.305.583-.103.81-.865.646-1.798-.165-.934-.618-1.456-1.222-1.47-11.548.713-11.768-1.896-12.817-7.849l-4.59-26.028 44.586-7.862 4.59 26.028c1.05 5.953 1.736 8.48-9.36 11.76-.563.22-.81.865-.645 1.798.164.934.638 1.573 1.222 1.47 7.703-1.358 9.68-2.43 16.917-3.705 7.237-1.276 10.395-1.11 18.215-2.49.467-.082.81-.865.645-1.799z"/>
		<path fill-rule="evenodd" clip-rule="evenodd" d="M974.088 354.139c.876 4.971.146 9.152-2.192 12.54-2.297 3.382-5.832 5.493-10.603 6.335-3.127.551-6.011-.098-8.653-1.947-2.64-1.85-4.237-4.338-4.788-7.465-.552-3.128.1-5.992 1.957-8.593 1.857-2.6 4.348-4.177 7.476-4.729 1.644-.29 3.13-.303 4.457-.041l-3.892-22.072c-.912-5.172-2.851-8.902-5.817-11.19-2.934-2.336-6.566-3.121-10.896-2.358-6.616 1.167-13.03 4.406-19.246 9.719l-.782.138-2.1-11.908c6.616-3.978 13.412-6.582 20.389-7.812 16.8-2.962 26.676 3.936 29.632 20.696l5.058 28.687zm-13.982 12.139c1.283-.226 2.287-.858 3.014-1.896.72-1.078.962-2.278.73-3.601-.213-1.203-.858-2.164-1.936-2.883-1.037-.727-2.177-.98-3.42-.761-1.243.219-2.248.85-3.015 1.895-.726 1.038-.983 2.158-.771 3.36.233 1.324.872 2.369 1.917 3.135 1.077.72 2.238.97 3.48.75zm6.568-70.362l-49.135 8.663c.696-4.959 1.546-8.581 2.549-10.867 1.002-2.285 2.481-4.447 4.437-6.487a24.49 24.49 0 0 1 6.488-5.05c2.418-1.295 4.93-2.172 7.536-2.632 5.172-.912 10.215-.21 15.13 2.107 4.867 2.284 8.572 5.827 11.114 10.629l1.881 3.637zm-10.86-4.969c-1.344-1.995-3.536-3.407-6.576-4.235-3.046-.868-6.214-1.013-9.501-.433-3.328.587-6.275 1.81-8.841 3.667-2.574 1.818-4.13 3.891-4.671 6.219l29.59-5.218zM846.396 393.272l-1.903-.255-9.982-56.61c-.693-3.933-1.832-6.717-3.416-8.352-1.538-1.7-5.115-2.505-10.731-2.416-8.543.098-13.425-3.32-14.648-10.257-.886-5.025-.01-9.318 2.628-12.88l2.212-.39c1.034 3.308 3.661 4.957 7.883 4.945l7.07-.149c3.928-.073 6.974.91 9.136 2.95 2.216 2.031 3.94 6.542 5.173 13.533l10.358 58.74c.857 4.861-.403 8.575-3.78 11.141zm-728.529-43.138c6.8.239 12.096 1.605 15.891 4.1 5.263 3.48 8.439 8.312 9.53 14.494.827 4.694.134 9.465-2.078 14.312-2.22 4.801-5.758 8.66-10.611 11.576-4.816 2.862-12.545 5.232-23.19 7.109l-44.62 7.868-.455-2.58 3.555-.627c3.951-.697 6.565-2.452 7.843-5.265.782-1.815.706-5.372-.229-10.671l-10.769-61.075c-1.033-5.857-2.358-9.433-3.977-10.73-2.173-1.725-5.05-2.272-8.628-1.641l-3.556.627-.455-2.58 40.857-7.204c7.623-1.344 13.833-1.864 18.631-1.56 7.268.444 13.114 2.48 17.54 6.109 4.418 3.582 7.114 8.14 8.09 13.67.836 4.741.145 9.248-2.073 13.521-2.226 4.227-5.992 7.743-11.296 10.547zm-37.198 2.677c1.777.022 3.775-.067 5.992-.266 2.256-.254 4.708-.614 7.358-1.082 6.786-1.196 11.748-2.814 14.887-4.853 3.177-2.094 5.406-4.811 6.686-8.152 1.28-3.341 1.605-6.801.974-10.38-.976-5.531-4.062-9.852-9.259-12.961-5.197-3.11-12.118-3.902-20.764-2.378-4.648.82-8.74 2.07-12.279 3.747l6.405 36.325zm7.966 45.179c5.613.304 11.046-.007 16.298-.933 8.413-1.483 14.496-4.497 18.248-9.04 3.743-4.59 5.123-9.674 4.14-15.252-.648-3.672-2.27-7.028-4.867-10.069-2.597-3.04-6.322-5.14-11.174-6.297-4.853-1.157-10.603-1.15-17.25.023-2.882.508-5.337.989-7.366 1.442-2.029.454-3.65.908-4.864 1.361l6.835 38.765z"/>
		<path d="M1170.6 214.256c-4.381.773-8.629.827-12.743.162-4.113-.665-7.465-2.18-10.054-4.548-2.59-2.367-4.16-5.11-4.71-8.227-.475-2.696-.474-4.912.002-6.647.476-1.734 1.342-3.103 2.599-4.107a9.368 9.368 0 0 1 4.286-1.929c1.601-.282 3.005-.204 4.212.235a7.059 7.059 0 0 1 3.048 2.134c.825.984 1.379 2.277 1.66 3.878.283 1.6.205 3.005-.234 4.211a7.059 7.059 0 0 1-2.134 3.048c-.984.825-2.277 1.38-3.878 1.661.486.784 1.58 1.568 3.283 2.354 1.702.786 3.662 1.309 5.88 1.57 2.218.26 4.76.138 7.624-.367 3.37-.595 6.035-1.499 7.993-2.713 1.958-1.214 3.455-2.825 4.491-4.832 1.036-2.007 1.406-3.853 1.109-5.539l-3.7-20.98c-.327-1.854-.929-3.79-1.806-5.807-.877-2.018-2.36-3.537-4.452-4.558-2.092-1.022-4.149-1.354-6.17-.998-3.54.625-6.679 1.547-9.417 2.768-2.739 1.222-5.065 2.566-6.978 4.033-1.914 1.467-3.349 2.936-4.306 4.408l-3.019 4.312c-.654.723-1.554.795-2.698.215-1.145-.58-1.485-1.52-1.019-2.818 1.498-3.826 3.577-7.06 6.24-9.701a32.585 32.585 0 0 1 8.981-6.34c3.326-1.586 7.012-2.736 11.056-3.449 3.54-.624 7.177-.44 10.914.552s6.493 3.069 8.267 6.231c1.774 3.163 2.943 6.345 3.508 9.547l3.7 20.98c.564 3.203.073 6.33-1.474 9.383-1.547 3.053-4.055 5.58-7.525 7.582-3.47 2.002-7.649 3.434-12.536 4.296zm2.047-65.261l-3.666.646-.356-2.022 3.294-3.122c.815-.796 1.435-1.839 1.859-3.13.424-1.291.658-2.549.703-3.773.002-1.217-.115-2.5-.353-3.848-.349-1.98-1.543-3.702-3.583-5.167-2.088-1.5-4.376-2.4-6.861-2.7-2.528-.293-5.393-.157-8.595.408-3.202.565-5.92 1.413-8.152 2.545a14.125 14.125 0 0 0-5.525 4.884c-1.458 2.081-2.012 4.112-1.663 6.092.238 1.349.587 2.59 1.048 3.725.419 1.143 1.048 2.248 1.888 3.316.84 1.069 1.78 1.837 2.818 2.306l4.163 1.807.356 2.022-3.665.646-4.416-.655c-1.586-.371-3.08-1.085-4.483-2.141-1.402-1.056-2.495-2.45-3.278-4.18-.832-1.764-1.434-3.7-1.806-5.806-.52-2.949-.161-5.966 1.076-9.051 1.237-3.086 3.632-5.636 7.186-7.653 3.554-2.017 7.986-3.493 13.294-4.43 5.309-.936 9.978-1.064 14.007-.384 4.03.68 7.153 2.257 9.37 4.733 2.219 2.476 3.587 5.189 4.107 8.138.372 2.107.49 4.128.353 6.063-.186 1.9-.758 3.587-1.715 5.06-.957 1.471-2.117 2.653-3.48 3.545l-3.925 2.126zm-117.505 202.859c-.51-2.89.914-5.302 4.272-7.24 6.987-3.97 14.264-9.288 21.832-15.955 2.006-1.7 3.941-2.713 5.805-3.042 1.212-.214 2.309.013 3.291.68.982.668 1.564 1.515 1.745 2.54.485 2.749-3.498 7.679-11.949 14.79-8.45 7.11-14.726 11.028-18.826 11.75-1.584.28-2.953.077-4.107-.608-1.154-.686-1.842-1.657-2.063-2.915zm17.565-56.909a17.207 17.207 0 0 1-4.037 1.217c-5.778 1.019-10.715.4-14.812-1.856-4.097-2.256-6.565-5.76-7.402-10.513-1.077-6.104.612-11.855 5.065-17.252 4.453-5.397 10.15-8.708 17.093-9.932 6.336-1.117 11.642-.383 15.918 2.202 4.275 2.585 6.918 6.743 7.928 12.474 1.068 6.057-.271 13.175-4.017 21.354-3.747 8.18-10.855 16.843-21.324 25.992-10.47 9.148-19.501 14.392-27.096 15.731-2.237.394-4.117.15-5.643-.735-1.525-.884-2.451-2.258-2.78-4.121-.682-3.868 1.981-6.883 7.989-9.048 12.698-4.545 23.738-13.05 33.118-25.513zm6.4-21.738c-.78-4.426-3.803-6.175-9.068-5.247-3.308.583-5.99 2.197-8.046 4.842-2.056 2.644-2.891 5.061-2.505 7.251.723 4.1 3.857 5.662 9.401 4.684 3.076-.542 5.634-2.11 7.675-4.704 2.04-2.594 2.888-4.869 2.543-6.826zM916.356 164.663c5.387-.783 10.574.144 15.56 2.782 4.988 2.638 7.926 6.475 8.813 11.508 1.117 6.335-.484 11.621-4.803 15.858-4.32 4.238-9.809 6.943-16.469 8.117-5.846 1.031-11.427.131-16.74-2.7-5.314-2.831-8.472-7.09-9.475-12.775-1.49-8.447 2.699-15.088 12.564-19.925.228-.125 1.143-.517 2.744-1.176 1.601-.66 2.509-1.09 2.723-1.295.499-.507.705-1.004.62-1.49-.087-.488-.451-1.01-1.094-1.568-.642-.557-.992-.998-1.05-1.323l.178-.407c.149-.11.467-.208.952-.294.895-.158 2.16-.109 3.796.147 1.636.256 2.511.709 2.626 1.358.143.813-.172 1.874-.945 3.183zm-3.261 5.723c-3.817.673-6.898 2.556-9.241 5.649-2.344 3.093-3.186 6.508-2.527 10.245.687 3.9 2.796 6.835 6.325 8.808 3.53 1.972 7.285 2.608 11.265 1.906 4.466-.787 8.068-2.679 10.806-5.674 2.738-2.994 3.727-6.644 2.968-10.95-.816-4.627-3.067-7.662-6.755-9.106-3.688-1.444-7.969-1.737-12.841-.878zm50.035 28.736l-6.122-34.72a33.251 33.251 0 0 0-.362-1.695 33.34 33.34 0 0 1-.362-1.695c-.372-2.11-1.842-3.796-4.41-5.061-2.568-1.265-5.106-2.241-7.614-2.93-2.508-.688-3.827-1.398-3.956-2.13-.186-1.055.94-1.798 3.376-2.227 2.6-.459 6.574-.363 11.922.286 5.348.649 8.105 1.92 8.27 3.816.567 5.594.944 8.918 1.13 9.974l12.38 70.922c.744 4.224 1.186 9.338 1.325 15.343.139 6.006-.767 9.18-2.718 9.524-1.541.272-3.114-4.14-4.718-13.236l-7.497-42.516c-1.133.703-3.489 1.83-7.066 3.381l-27.914 11.956 2.298 13.035c.401 2.275.78 5.014 1.135 8.217.355 3.204.407 6.942.156 11.214s-1.236 6.518-2.956 6.737c-.788-.196-1.587-1.52-2.396-3.972-.81-2.453-1.354-4.827-1.634-7.122-.28-2.296-.56-4.005-.843-5.128l-3.694-20.953-13.965 4.847c-.784.306-2.123 1.025-4.017 2.155-1.894 1.13-3.41 1.795-4.547 1.996-1.869.33-5.514-.159-10.936-1.464-5.422-1.306-8.261-2.69-8.52-4.152-.057-.325.097-.645.46-.96.364-.314.715-.46 1.054-.438 5.665-.16 12.193-.893 19.584-2.196 5.604-.988 13.02-2.86 22.247-5.619 9.227-2.758 16.934-5.352 23.122-7.782l11.509-4.54a242.41 242.41 0 0 1 2.955-1.403c1.431-.671 2.54-1.16 3.324-1.464zm-140.45-3.427c-.966-5.473-2.472-8.769-4.52-9.888-2.01-1.172-5.707-1.283-11.09-.334l-.44-2.49 39.5-6.964.439 2.49c-5.621 1.176-9.074 2.71-10.36 4.601-1.285 1.892-1.398 5.844-.338 11.855l10.228 58.003c1.06 6.011 2.517 9.686 4.372 11.024 1.855 1.338 5.624 1.599 11.308.781l.44 2.49-39.5 6.965-.438-2.49c5.755-1.2 9.275-2.745 10.56-4.637 1.278-1.937 1.39-5.888.339-11.855l-9.231-52.35-32.762 61.697c.733 3.895 1.442 6.476 2.128 7.743.723 1.214 2.004 2.052 3.843 2.514 1.884.454 5.032.338 9.444-.347l.44 2.49-39.365 6.94-.44-2.49c5.621-1.175 9.074-2.71 10.36-4.601 1.285-1.892 1.398-5.843.338-11.855l-10.228-58.003c-1.06-6.011-2.517-9.686-4.372-11.024-1.855-1.338-5.624-1.598-11.308-.781l-.439-2.49 39.364-6.941.44 2.49c-5.666 1.184-9.142 2.722-10.427 4.613-1.285 1.892-1.398 5.844-.338 11.855l9.266 52.553 32.786-61.564"/>
		<path fill-rule="evenodd" clip-rule="evenodd" d="M706.966 228.493c.703-1.655 1.526-4.364 2.47-8.128 1.018-3.777 1.472-6.192 1.364-7.245-.005-.458-.134-.971-.387-1.539a33.458 33.458 0 0 0-.727-2.168c-.13-.742.546-1.244 2.031-1.506 1.56-.275 3.153-.135 4.782.42 1.69.467 2.853.99 3.49 1.565 1.014.97 1.573 1.752 1.677 2.346.092.52-.336 1.13-1.284 1.834-.947.703-1.544 1.229-1.788 1.578-.476.773-1.162 2.31-2.057 4.611a106.057 106.057 0 0 0-1.671 4.199c.777-.367 2.015-1.16 3.714-2.378 1.157-.816 2.367-1.336 3.629-1.558 3.266-.576 5.057.027 5.37 1.808.197 1.114-.796 2.208-2.98 3.282l-12.905 5.605c1.393.52 2.378 1.112 2.954 1.775.65.651 1.042 1.348 1.172 2.09.027.149.009.917-.052 2.306.013 1.375.104 2.546.274 3.51.581-.178 1.642-.671 3.184-1.48 1.616-.82 2.72-1.283 3.315-1.387 1.41-.249 2.607-.192 3.589.17 1.057.35 1.637.822 1.742 1.415.144.817-.876 1.762-3.06 2.836-1.135.507-2.641 1.079-4.519 1.716-1.878.637-3.026 1.07-3.446 1.296l2.121 12.027c.52-.092 1.823-.513 3.91-1.264 2.075-.825 3.557-1.316 4.448-1.473.446-.079 1.275-.148 2.49-.21 2.528.014 3.903.652 4.126 1.914.235 1.336-.623 2.33-2.575 2.98-.878.231-2.832.652-5.862 1.263-2.957.598-4.83 1.043-5.62 1.336l2.814 16.611c1.93-.34 3.82-.903 5.672-1.689a303.21 303.21 0 0 1 4.887-2.24c.358-.139.946-.28 1.762-.425 1.114-.196 2.304-.176 3.57.06 1.253.161 2.707.594 4.362 1.297 1.057.35 1.69 1.118 1.9 2.306.222 1.262-.446 2.03-2.005 2.306-.446.078-.786.1-1.022.065-4.114.113-8.063.503-11.85 1.17a105.653 105.653 0 0 0-12.557 3.019c-4.065 1.252-8.723 2.84-13.972 4.76.008 3.52-.841 5.43-2.549 5.73-.668.119-1.334-.185-1.997-.91-1.153-1.328-2.155-3.103-3.006-5.326-.851-2.222-1.27-3.947-1.257-5.174.026-2.455-.017-5.088-.13-7.9a52.205 52.205 0 0 0-.785-8.358l-3.298-22.612c-.354-2.004-.663-3.328-.93-3.97-.799-1.925-2.25-3.43-4.355-4.513-.708 1.196-2.166 2.908-4.376 5.134-1.743 1.839-3.02 3.06-3.833 3.661-.825.529-1.423.826-1.794.891-.372.066-.498-.218-.38-.852.105-.707.432-1.454.983-2.24 3.175-5 6.165-10.617 8.97-16.852 3.24-7.23 4.658-11.997 4.252-14.299a27.269 27.269 0 0 1-.484-2.096c-.183-1.039-.21-1.838-.078-2.397.192-.646.733-1.048 1.624-1.205.52-.092 1.133-.085 1.84.02 1.988.415 3.697.994 5.13 1.736 1.418.669 2.742 1.66 3.968 2.975.664.725 1.048 1.384 1.153 1.978.144.817-.666 1.648-2.43 2.495-.988.48-1.566.889-1.736 1.225-.608 1.332-2.03 3.688-4.266 7.067a433.432 433.432 0 0 1-6.38 9.392c.658.267 1.15.448 1.473.544 1.305.459 2.294.858 2.967 1.2 1.895-.105 4.965-1.144 9.21-3.117 1.42-.633 3.424-1.637 6.014-3.013zm-42.897 38.68c.786.55 1.35 1.14 1.69 1.769.402.541.674 1.22.818 2.037.066.371.153 1.083.262 2.135.096.978.203 1.802.32 2.47l1.768 10.022a9973.424 9973.424 0 0 0 .727 4.12c.327 1.856.514 3.354.562 4.494.061 1.214.116 2.39.163 3.53a10.968 10.968 0 0 1-.34 3.275c-.202 1.03-.636 1.605-1.304 1.723-.817.144-1.758-.418-2.823-1.684-1.066-1.267-1.84-2.623-2.325-4.068-.41-1.459-.694-2.633-.851-3.524a18.145 18.145 0 0 1-.21-4.441c.25-3.795.27-6.286.06-7.474l-1.177-6.681c-.275-1.56-.522-2.74-.74-3.544-.803-2.385-1.881-3.725-3.235-4.023a234.717 234.717 0 0 0-4.841 3.15 47.375 47.375 0 0 0-3.433 2.672l-1.56 2.227c-.366.524-.735.82-1.106.884-.371.066-.769-.017-1.192-.249-1.843-.9-3.29-1.945-4.343-3.138-.978-1.205-1.643-2.81-1.997-4.814-.157-.891.136-1.402.878-1.533l3.681.04c1.031-1.1 2.75-3.509 5.156-7.224 2.7-4.227 4.486-7.336 5.36-9.327-1.17-.56-3.78-1.247-7.827-2.065-3.987-.904-7.122-2.188-9.406-3.852-1.135-.795-1.755-1.49-1.86-2.084-.092-.52.345-.864 1.31-1.034.756-.057 1.282-.112 1.579-.164l5.463-.274c1.376-2.616 3.326-7.4 5.851-14.351 2.512-7.026 3.943-11.718 4.292-14.076-.358-1.161-.589-2.04-.694-2.633-.157-.89.136-1.402.878-1.533.594-.104 1.251-.067 1.972.112 1.664.319 2.963.74 3.897 1.265.921.45 2.15 1.343 3.688 2.68.825.772 1.29 1.456 1.395 2.05.144.816-.424 1.72-1.704 2.711-1.218.904-1.858 1.4-1.92 1.487-2.314 2.934-5.009 6.969-8.084 12.103-1.66 2.743-3.763 6.443-6.31 11.102a111.4 111.4 0 0 1 3.662 1.88c2.79 1.499 4.598 2.635 5.423 3.407 1.599-2.654 3.51-6.36 5.733-11.114 2.223-4.756 3.46-7.73 3.709-8.921-.459-1.297-.753-2.317-.884-3.06-.17-.964.301-1.545 1.415-1.742.223-.039.792-.063 1.71-.071 1.947.192 3.419.507 4.414.943.983.363 2.149 1.114 3.498 2.254.973.747 1.513 1.418 1.617 2.011.131.743-.537 1.511-2.004 2.306-1.393.781-2.151 1.26-2.273 1.434a2495.49 2495.49 0 0 0-11.145 16.891c-5.45 8.157-9.052 13.346-10.803 15.569 1.952-.65 5.943-2.54 11.974-5.671a639.191 639.191 0 0 0 8.49-4.597l-4.106-3.754c-.852-.921-1.304-1.53-1.356-1.828-.052-.297.144-.484.59-.563.445-.078 1.307.038 2.587.348 4.235 1.013 7.312 1.964 9.229 2.85 2.663 1.215 4.139 2.638 4.427 4.272.301 1.707.364 3.15.19 4.33-.101 1.165-.597 1.827-1.488 1.984-.37.065-.886-.035-1.546-.302-1.257-.62-2.48-1.476-3.667-2.568-1.463-1.35-2.325-2.116-2.587-2.3-.813.603-3.232 2.293-7.259 5.07-3.214 2.174-5.35 3.737-6.406 4.689.982.362 1.76.646 2.331.851.572.206 1.251.584 2.037 1.134zm-10.03 14.743c.14.358.249.76.327 1.205l.177 1.003c.327 1.855.502 3.93.523 6.222.022 2.293-.147 4.16-.505 5.6-.774 3.428-1.865 5.267-3.276 5.515-1.633.288-2.823-1.683-3.569-5.915-.406-2.301-.216-4.478.57-6.53a169.508 169.508 0 0 1 2.622-5.974c.126-1.017.266-1.96.42-2.83.226-.881.563-1.362 1.008-1.44.446-.079 1.013.97 1.703 3.144zm20.163-10.674c2.611.917 4.657 1.667 6.137 2.248 2.8 1.114 4.41 2.437 4.834 3.97.314 1.781.246 3.133-.204 4.054-.45.922-1.157 1.467-2.123 1.637-1.187.21-2.325-.164-3.412-1.12-1.437-1.201-2.932-2.736-4.486-4.606-1.48-1.882-2.421-3.094-2.823-3.635-.755-1.245-1.172-2.09-1.25-2.535-.092-.52.128-.789.661-.806.533-.017 1.421.247 2.666.793zm40.787 9.916l-2.847-16.146a943.108 943.108 0 0 1-6.682 3.13c-1.284.532-2.965.982-5.044 1.348l2.395 15.538 12.178-3.87zm-3.495-19.821l-2.121-12.027c-2.013.738-4.024 1.705-6.033 2.901-2.01 1.196-3.348 1.853-4.016 1.971-.52.092-.897.12-1.133.085l1.695 12.217c1.41-.25 3.738-1.157 6.983-2.724 1.06-.494 2.603-1.301 4.625-2.423zm-16.923-24.343c.476.528.867 1.225 1.172 2.09.306.864.55 1.816.734 2.855.261 1.485.418 3.027.47 4.625l.727 4.12c.965-.17 3.064-1.076 6.295-2.717 1.061-.494 2.566-1.295 4.514-2.404l-.157-.89a26.19 26.19 0 0 1-.301-2.359c-.34-1.93-.79-3.611-1.349-5.043-.559-1.433-1.305-2.411-2.24-2.935a99.324 99.324 0 0 1-3.17.903c-3.498 1-5.73 1.585-6.695 1.755z"/>
		<path d="M554.076 255.598l1.247 7.077-15.1 2.662 9.974 56.566-2.243.395-6.707-5.395-8.849-50.186-11.114 1.96-1.247-7.077 12.808-2.259c-4.74-3.172-7.524-7.118-8.356-11.835-.985-5.582 1.153-10.361 6.413-14.338 4.175-3.134 9.336-5.243 15.482-6.327 9.669-1.704 18.92-.818 27.756 2.66 8.862 3.44 17.291 9.472 25.287 18.1l-3.388.598c-7.665-6.357-15.43-10.76-23.296-13.21-7.871-2.483-15.827-3.016-23.868-1.598-6.08 1.072-10.453 2.888-13.12 5.448-2.671 2.526-3.656 5.783-2.953 9.77.627 3.555 2.286 6.843 4.977 9.862l16.297-2.873zm60.502-10.668l1.248 7.076-15.15 2.672 9.973 56.566-2.093.369-6.856-5.37-2.917-16.545c-4.99 4.922-9.678 7.77-14.064 8.543-4.054.715-8.409-.573-13.066-3.862-4.629-3.33-7.251-6.738-7.866-10.227-.405-2.292.109-4.627 1.54-7.003 1.43-2.376 3.807-4.44 7.13-6.19 3.35-1.79 6.254-2.902 8.713-3.335 4.419-.78 9.247.665 14.484 4.332l-2.803-15.898-38.873 6.854-1.248-7.077 61.848-10.905zm-17.887 32.906l-.44-2.492c-3.226-1.589-6.268-2.131-9.125-1.628-3.92.692-7.867 2.5-11.838 5.428-3.978 2.894-5.73 5.686-5.255 8.377.375 2.127 1.42 3.776 3.133 4.946 1.708 1.138 3.542 1.534 5.503 1.189 2.259-.399 5.832-2.673 10.718-6.824 4.881-4.183 7.315-7.182 7.304-8.996zm-135.688 61.541c-3.94.694-8.381.39-13.326-.915-4.944-1.304-8.874-4.056-11.791-8.256s-4.722-8.27-5.417-12.21c-.694-3.938-.39-8.38.915-13.325 1.304-4.944 4.056-8.875 8.256-11.791 4.2-2.917 8.27-4.722 12.21-5.417 3.938-.694 8.38-.39 13.325.914 4.944 1.305 8.875 4.057 11.791 8.257 2.917 4.2 4.722 8.27 5.417 12.21.694 3.938.39 8.38-.914 13.325-1.305 4.944-4.057 8.875-8.257 11.791-4.2 2.917-8.27 4.722-12.21 5.417zm-1.34-7.597c2.814-.497 5.688-1.783 8.622-3.86 2.934-2.076 4.875-4.848 5.823-8.316.948-3.467 1.174-6.608.678-9.421-.496-2.814-1.783-5.688-3.86-8.622-2.076-2.934-4.848-4.875-8.316-5.823-3.467-.948-6.607-1.174-9.421-.678-2.814.497-5.688 1.783-8.622 3.86-2.934 2.076-4.875 4.848-5.823 8.316-.948 3.467-1.174 6.608-.678 9.421.497 2.814 1.783 5.688 3.86 8.622s4.848 4.875 8.316 5.823c3.467.948 6.608 1.174 9.421.678zm-8.72-50.685c-3.164.558-6.387.383-9.666-.526-3.279-.908-5.906-2.748-7.881-5.519-1.976-2.77-3.243-5.738-3.8-8.903-.559-3.166-.384-6.388.525-9.667.909-3.28 2.748-5.906 5.519-7.882 2.77-1.975 5.738-3.242 8.904-3.8 3.165-.558 6.388-.383 9.666.526 3.28.909 5.907 2.748 7.882 5.519 1.976 2.77 3.242 5.738 3.8 8.903.559 3.166.383 6.388-.525 9.667-.909 3.28-2.749 5.906-5.52 7.882-2.77 1.975-5.738 3.242-8.903 3.8zm-1.115-6.33c1.406-.249 2.823-.752 4.248-1.511a11.598 11.598 0 0 0 3.653-3.038c-1.423-1.49-2.903-2.48-4.44-2.97-1.537-.491-3.15-.587-4.838-.29-1.688.298-3.17.94-4.448 1.927-1.276.986-2.328 2.423-3.156 4.31a11.598 11.598 0 0 0 4.472 1.605c1.599.225 3.102.214 4.509-.034zm9.472-7.981c.497-2.119.584-4.092.262-5.921-.36-2.04-1.188-3.961-2.485-5.763-1.297-1.803-3.014-3.005-5.151-3.607-2.137-.602-4.226-.724-6.266-.364s-3.96 1.188-5.763 2.485c-1.802 1.297-3.004 3.014-3.607 5.15-.602 2.138-.723 4.226-.364 6.266.323 1.83 1.08 3.654 2.271 5.475.91-3.062 2.169-5.387 3.775-6.976 1.605-1.588 3.393-2.556 5.362-2.904 1.97-.347 3.981-.049 6.033.895 2.052.944 4.03 2.698 5.933 5.264zm-78.503 86.736l-25.527-10.656c2.216-4.513 4.006-10.038 5.372-16.573 1.74-8.33 2.038-15.738.903-22.178-1.697-9.624-5.791-17.024-12.287-22.222-7.128-5.705-15.958-7.628-26.468-5.775-6.752 1.19-12.465 3.926-17.098 8.174-4.628 4.272-7.536 9.475-8.626 15.616-.306 1.905-.244 4.215.225 6.872 1.017 5.77 2.929 9.753 5.798 11.888 1.064-2.928 3.007-6.331 5.808-10.182 2.419-3.364 4.7-5.964 6.845-7.798l8.836 4.613c-3.728 3.496-6.797 7.37-9.19 11.717-2.77 5.006-3.842 9.292-3.213 12.86.735 4.165 2.783 7.383 6.137 9.606 3.359 2.246 7.382 2.944 12.074 2.117 5.052-.891 8.73-2.848 11.084-5.88 2.038-2.58 2.786-5.477 2.216-8.71-.865-4.907-3.568-7.64-8.134-8.192l-9.073 12.239-8.304-5.374 22.261-29.844c1.468.901 4.194 2.642 8.196 5.319-1.723 2.55-4.04 5.649-6.858 9.404 6.762 2.51 10.767 7.309 12.008 14.348 1.136 6.44-.414 12.07-4.705 16.85-4.122 4.627-9.797 7.578-17.075 8.861-8.427 1.486-15.513.217-21.267-3.853-5.117-3.541-8.22-8.4-9.305-14.553a22.217 22.217 0 0 1-.323-3.794c-7.847-3.06-12.635-9.497-14.378-19.385a37.648 37.648 0 0 1-.543-5.878c-.178-8.707 3.154-16.552 10.014-23.562 6.726-6.938 15.066-11.296 25.049-13.057 13.263-2.338 24.637.149 34.161 7.405 8.925 6.795 14.486 16.355 16.647 28.612 1.022 5.794.983 12.293-.116 19.497-.955 6.068-2.357 11.277-4.254 15.635l17.596 6.278c-.805 1.87-2.294 5.045-4.486 9.554zM173.56 390.061l-8.632-11.638 25.728-58.638 5.909-1.042 22.406 41.378 21.556-49.13 5.909-1.042 33.247 61.4-6.618 1.167-25.297-46.717-22.989 52.063-3.072.542-23.81-43.812-24.337 55.47zm59.586-87.76l-10.565-7.398 5.215-11.886 10.565 7.398-5.215 11.886z"/>
		<path fill-rule="evenodd" clip-rule="evenodd" d="M1101.687 105.061l25.37-4.473 24.333-50.105a156.748 156.748 0 0 0 7.804-1.231c.692-.17 1.408-.345 2.148-.524l4.869 27.613c1.054 5.98 1.055 9.81.002 11.49-1.413 2.368-3.895 3.865-7.446 4.492l-3.714.654.457 2.593 40.718-7.18-.457-2.592-3.574.63c-4.018.709-7.122-.093-9.312-2.405-1.237-1.275-2.333-4.623-3.289-10.042l-10.825-61.393c-1.054-5.98-1.055-9.81-.002-11.489 1.46-2.377 3.988-3.883 7.586-4.517l3.574-.63-.457-2.593-34.621 6.104c-10.092 1.78-17.412 3.841-21.961 6.185-4.51 2.289-8.097 5.715-10.761 10.28-2.625 4.51-3.456 9.497-2.492 14.964 1.03 5.84 3.816 10.576 8.358 14.207 4.59 3.623 11.035 5.617 19.337 5.984l-14.816 30.722c-3.381 7.052-6.502 11.89-9.364 14.514-2.861 2.624-6.835 4.674-11.923 6.149l.458 2.593zm58.876-60.748c-.888.157-1.654.316-2.3.478l-1.612.284c-9.064 1.599-16.255.843-21.572-2.266-5.271-3.117-8.442-7.713-9.513-13.787-1.046-5.933-.05-11.071 2.991-15.413 3.079-4.397 7.678-7.135 13.799-8.214 2.71-.478 6.456-.68 11.238-.608l6.97 39.526z"/>
		<path d="M992.868 123.743l-10.211-57.91-13.38 2.36-1.393-7.896 13.38-2.36L978.79 43.9c-.411-10.03 5.378-16.102 17.37-18.217 13.47-.566 21.684 7.108 24.641 23.022l-7.897 1.393c-2.26-11.966-7.378-17.472-15.352-16.518-6.924.92-10.482 4.26-10.672 10.024l2.282 12.942 13.38-2.36 1.393 7.897-13.38 2.36 10.21 57.909-7.896 1.392zm55.716-9.824c-10.09 1.78-16.697 1.512-19.819-.803-3.44-2.409-5.091-6.64-4.953-12.697-6.4-.379-10.524-4.1-12.372-11.162-1.41-7.14.703-12.262 6.337-15.367l37.73-6.652-2.438-13.82-51.767 9.128-1.393-7.896 68.877-12.145 1.393 7.896-9.213 1.625 3.481 19.742-42.774 7.542c-2.658 2.881-3.437 5.733-2.336 8.554.73 4.998 3.986 7.214 9.766 6.647l37.07-6.537c2.263 1.712 2.611 3.686 1.045 5.923l-37.07 6.536c.093 7.372 5.89 9.893 17.391 7.564l21.497-3.79c2.262 1.711 2.61 3.685 1.044 5.922l-21.496 3.79z"/>
		<path fill-rule="evenodd" clip-rule="evenodd" d="M941.848 73.558c2.59 14.687 1.358 28.112-3.695 40.276-5.871 14.073-15.755 22.335-29.651 24.786-10.011 1.765-18.36.826-25.045-2.816-2.94-1.655-5.844-4.063-8.71-7.225-2.92-3.084-5.771-6.927-8.552-11.53 2.15 2.949 7.42 5.686 15.81 8.213 7.895 2.41 13.917 3.25 18.066 2.519 4.347-.767 8.494-2.279 12.442-4.537a45.794 45.794 0 0 0 10.56-8.279 42.058 42.058 0 0 0 7.533-11.005c1.995-4.087 3.187-8.303 3.575-12.65l-1.15.407-1.186.209c-3.425.604-6.795.553-10.111-.153-3.316-.705-6.351-1.936-9.105-3.691a24.98 24.98 0 0 1-6.973-6.614 21.39 21.39 0 0 1-3.694-8.822c-.906-5.137.358-11.64 3.791-19.513 3.76-8.336 8.043-12.928 12.85-13.776 1.383-.243 3.003.082 4.858.977 9.088 4.17 15.217 15.245 18.387 33.224zm-9.245-1.018c-.313-1.778-.962-3.531-1.946-5.259-.918-1.74-2.031-3.24-3.34-4.504a13.961 13.961 0 0 0-4.382-2.895c-1.611-.666-3.24-.854-4.886-.564-.923.163-1.792.622-2.61 1.377-.763.678-1.426 1.542-1.988 2.591a11.792 11.792 0 0 0-1.273 3.179c-.209 1.123-.227 2.179-.052 3.167.185 1.054.898 2.014 2.138 2.882 1.293.791 2.833 1.436 4.62 1.936 1.773.434 3.69.708 5.746.82 2.057.113 3.975.012 5.753-.301 1.712-.302 2.453-1.112 2.22-2.429zm-93.883-7.646c.076.426.009.834-.189 1.234-.21.39-.459.616-.782.673-2.544.706-4.527 1.913-5.919 3.627-1.403 1.705-2.619 4.716-3.672 9.017l-16.16 65.158c-.078.592-.517.959-1.328 1.102-.634.112-1.172-.083-1.624-.582l-20.586-28.8-11.749 34.502c-.255.623-.694.99-1.328 1.102-.769.135-1.327-.055-1.676-.573l-37.003-55.783c-2.304-3.463-4.502-5.776-6.593-6.94-2.081-1.165-4.79-1.641-8.106-1.42-.28.049-.577-.05-.869-.308a1.547 1.547 0 0 1-.554-.953c-.174-.987.02-1.525.582-1.624a92.77 92.77 0 0 1 7.424-.988 74.949 74.949 0 0 0 6.782-.864c2.14-.377 4.648-.926 7.52-1.658 3.009-.745 5.693-1.325 8.042-1.74.56-.098.928.34 1.102 1.328.172.977.081 1.497-.262 1.557-2.317.591-4.061 1.52-5.235 2.767-1.171 1.257-1.612 2.706-1.32 4.359.148.842.613 1.842 1.396 3l30.446 45.334 8.242-25.524-15.774-22.114c-2.827-3.938-5.023-6.423-6.573-7.436-1.549-1.002-3.7-1.415-6.452-1.22-.25.044-.504-.06-.786-.322a1.633 1.633 0 0 1-.523-.958c-.174-.987-.02-1.518.478-1.606 2.35-.414 4.519-.69 6.52-.828a53.713 53.713 0 0 0 6.106-.745c2.1-.37 4.306-.866 6.616-1.498a84.826 84.826 0 0 1 7.096-1.573c.561-.099.928.34 1.102 1.327.172.977.092 1.495-.261 1.558-4.641 1.15-6.756 2.895-6.342 5.244.185 1.05 1.014 2.586 2.494 4.597l10.345 14.123 5.083-15.482c.698-2.181.931-3.958.69-5.33-.569-3.222-3.22-4.523-7.957-3.913-.426.075-.72-.377-.892-1.354a1.794 1.794 0 0 1 .136-1.053c.161-.36.341-.553.55-.59 1.683-.296 3.77-.557 6.26-.782 2.387-.196 4.338-.433 5.846-.698 1.08-.19 2.665-.567 4.733-1.114 2.619-.708 4.831-1.227 6.619-1.542.416-.073.697.306.845 1.148.198 1.122-.087 1.751-.856 1.887-2.684.763-4.754 1.91-6.2 3.43-1.448 1.52-3.035 4.671-4.753 9.454l-6.81 20.459 18.592 25.454 11.915-50.52c.394-1.838.469-3.48.216-4.914-.607-3.44-3.276-4.845-8.013-4.235-.426.075-.72-.377-.892-1.354-.175-.987.051-1.53.685-1.643 1.715-.302 3.77-.557 6.156-.764 2.211-.164 4.06-.383 5.525-.642 1.548-.272 3.318-.692 5.306-1.267 2.073-.58 3.946-1.018 5.63-1.315.489-.086.811.286.96 1.128z"/>
		<path d="M624.996 165.803l2.495-.44c.743 3.16 2.08 5.22 4.01 6.177 1.93.958 4.76 1.107 8.492.45l18.41-3.247-.932-4.494c-7.402-.178-14.622-3.007-21.66-8.487-7.04-5.48-11.434-13.188-13.186-23.123-1.942-11.014.492-21.131 7.303-30.352 6.855-9.227 16.891-15.007 30.108-17.337 12.813-2.26 23.937-.42 33.374 5.518 9.43 5.893 15.154 14.571 17.176 26.035 1.64 9.306.496 17.666-3.435 25.08-3.893 7.362-9.934 13.062-18.121 17.101l.122 4.637 18.746-3.305c4.271-.753 6.938-2.058 8.001-3.914 1.109-1.864 1.49-4.04 1.144-6.529l2.495-.44 3.721 21.107-37.762 6.658-1.838-20.674c10.957-5.686 14.865-17.43 11.726-35.233-2.053-11.643-6.481-20.064-13.284-25.261-6.759-5.205-13.959-7.134-21.601-5.786-8.137 1.435-14.298 5.928-18.482 13.48-4.148 7.498-5.318 16.373-3.51 26.623 1.307 7.417 3.692 13.973 7.152 19.667 3.453 5.649 8.77 9.115 15.948 10.399l4.873 20.139-37.763 6.658-3.722-21.107zm-78.475-48.737c1.304-.23 2.864-.28 4.68-.153 1.902.113 4.083.536 6.542 1.267 2.444.645 4.613 2.01 6.504 4.097 1.964 1.985 3.221 4.542 3.773 7.671l.184 1.043c.061.348.072.66.03.936l15.91-2.805 1.15 6.52-39.643 6.99 3.403 19.3c.961 3.416 2.789 4.886 5.484 4.41.956-.168 2.56-2.512 4.81-7.032l1.711-3.26c1.545-2.424 2.665-3.697 3.36-3.82 3.478-.613 6.812 1.265 10.002 5.632 3.175 4.28 5.176 8.768 6.004 13.463 1.288 7.302.157 13.597-3.393 18.884-3.565 5.2-8.955 8.436-16.17 9.709-3.652.643-7.121.538-10.41-.316-3.287-.855-6.143-2.054-8.567-3.599-2.439-1.632-4.827-3.99-7.163-7.073-2.265-3.186-4.113-6.043-5.545-8.569-1.431-2.526-2.957-5.843-4.578-9.95-1.549-4.208-2.696-7.412-3.442-9.61-.762-2.287-1.713-5.391-2.853-9.313l4.28 1.396c.66 2.215 1.547 4.703 2.661 7.464 1.114 2.762 2.77 6.055 4.97 9.88 2.284 3.81 4.718 7.19 7.3 10.142 2.654 2.849 5.883 5.148 9.687 6.897 3.876 1.647 7.9 2.103 12.073 1.367 3.304-.582 6.101-1.748 8.392-3.497 2.378-1.763 4.007-3.709 4.887-5.836.88-2.127 1.435-4.063 1.666-5.807.317-1.759.376-3.203.177-4.333-.537-3.043-1.991-5.7-4.364-7.97-.7 2.633-2.645 5.844-5.83 9.633-3.187 3.789-6.606 6.005-10.257 6.649-2.434.429-4.654-.21-6.658-1.919-2.004-1.708-3.275-4.084-3.811-7.126l-4.346-24.646-28.819 5.081-1.15-6.52 46.684-8.231 4.718-2.984 1.335-1.58c-.291-1.651-1.738-2.74-4.341-3.268-2.531-.63-5.753-.599-9.665.09a69.456 69.456 0 0 0-8.123 1.971c-2.736.751-5.104 1.303-7.103 1.656-3.738.659-7.106.625-10.102-.101-2.91-.742-5.17-1.867-6.78-3.376-1.524-1.524-2.67-2.936-3.436-4.235-.767-1.299-1.243-2.47-1.427-3.513-.368-2.087-.283-3.894.254-5.423.537-1.529 1.067-2.34 1.588-2.432l3.36.753c-1.049 1.17-1.657 2.802-1.826 4.893.322 1.826 1.57 3.309 3.742 4.45 2.158 1.053 5.628 1.159 10.41.315l18.071-4.262zm-108.27 11.807c-.143-.813-.746-1.858-1.517-2.665-1.129-1.057-2.455-1.451-3.572-1.254-.507.09-.98.382-1.23.74l-12.588 17.088c-.353.376-.502.717-.449 1.021.072.406.347.777.723 1.13.478.334.956.668 1.362.597.305-.054.591-.21.86-.466l15.837-14.1c.538-.514.717-1.279.574-2.091zm29.14 70.25c.113-.544-.944-1.195-2.06-.998-.407.071-.694.227-.843.567-2.343 8.685-10.258 16.049-18.28 17.464l-11.07 1.951c-2.64.466-6.068.023-6.946-4.952l-4.405-24.981 12.796-2.257c5.28-.93 8.458-.13 11.413 9.505.072.407.753.705 1.565.562.71-.125 1.35-.657 1.278-1.063-.895-5.077-1.988-7.712-2.83-12.484-.84-4.773-.697-7.52-1.592-12.598-.09-.508-.854-.687-1.565-.562-.813.143-1.368.555-1.279 1.063.519 10.065-2.283 11.397-7.563 12.328l-12.796 2.256-3.993-22.645c-.877-4.976 2.176-6.666 4.816-7.132l10.256-1.808c6.398-1.128 13.548.229 18.158 9.153.155.287.633.622 1.242.514 1.117-.197 1.84-.848 1.512-1.523-2.592-5.197-4.258-9.3-6.055-14.743-6.344 1.433-19.39 4.048-26.194 5.247-6.702 1.182-19.856 3.187-26.307 4.01-.508.09-.687.855-.561 1.566.143.812.555 1.367 1.063 1.278 10.065-.518 11.05 1.507 11.981 6.787l8.434 47.83c.913 5.179.697 7.52-8.956 10.374-.49.191-.705.753-.561 1.565.143.812.555 1.368 1.063 1.278 6.361-1.33 20.405-4.226 27.107-5.408 6.804-1.2 20.99-3.282 27.424-4.207.92-6.654 2.092-11.887 3.748-17.937zm-145.808-30.125l-6.295-4.407c-.354-2.007.093-3.6 1.341-4.778 1.249-1.178 4.974-2.543 11.176-4.097 5.478-.66 9.019-.843 10.622-.55 1.603.291 2.493.94 2.67 1.942.105.595-.058 1.41-.488 2.443l-2.755 3.935c-1.334 1.997-2.237 4.264-2.71 6.8l-12.951 43.897c2.493 7.837 4.217 12.725 5.172 14.664.955 1.94 1.706 3.646 2.254 5.12.547 1.475.893 2.621 1.037 3.439.445 2.527-.89 4.946-4.008 7.259l-14.954 11.028c-.666.348-1.26.567-1.78.659-.558.098-1.015.112-1.373.04a2.1 2.1 0 0 1-.939-.437c-.356-.282-.6-.527-.733-.733a1.635 1.635 0 0 1-.247-.589c-.06-.334-.02-.763.118-1.285.138-.523.667-1.325 1.588-2.407 2.483-2.43 4.017-4.051 4.602-4.863.585-.812 1.188-1.848 1.809-3.107.621-1.259.709-3.152.263-5.68l-2.713-15.384c-.97-5.5-3.277-10.113-6.923-13.839a205.523 205.523 0 0 1-10.117-11.09c-3.1-3.669-5.912-7.886-8.439-12.652a62.022 62.022 0 0 0-1.878-3.807c-.745-1.401-2.055-2.856-3.93-4.365l-6.296-4.408c-.354-2.006.094-3.599 1.342-4.777s4.973-2.544 11.175-4.097c5.478-.66 9.02-.843 10.623-.551 1.603.292 2.493.94 2.67 1.943.105.595-.058 1.409-.489 2.443l-2.755 3.934c-1.334 1.998-2.01 4.244-2.03 6.738.177 1.004 1.211 3.178 3.104 6.522 1.892 3.345 4.653 6.614 8.281 9.806 3.628 3.192 7.051 6.956 10.268 11.294 1.75-3.987 4.584-12.687 8.503-26.1.184-1.565.063-3.23-.363-4.993-.426-1.764-1.577-3.4-3.452-4.91zm-148.943 8.848c-5.264.928-9.01 3.072-11.24 6.43-2.23 3.359-2.739 8.472-1.528 15.34l10.631 60.29c.381 2.162.875 3.737 1.48 4.727.606.99 1.345 1.407 2.217 1.253 1.185-.209 1.942-1.268 2.27-3.177.328-1.909.225-4.685-.31-8.33l7.425 5.108c-.367 2.401-1.263 4.302-2.688 5.704-1.424 1.401-3.391 2.323-5.901 2.766-3.103.547-5.907-.172-8.414-2.156-2.506-1.984-4.012-4.406-4.516-7.264l-11.027-62.54c-1.176-6.874-.134-12.377 3.127-16.51 3.261-4.134 7.75-6.705 13.468-7.713 5.438-.959 11.908-.141 19.41 2.454 7.503 2.595 15.707 7.025 24.612 13.291l-3.242.572c-7.006-4.264-13.509-7.251-19.507-8.961-6-1.71-11.421-2.138-16.267-1.284zm37.834 16.729l1.516-.268 7.443 5.212 9.008 51.088c.32 1.813.769 3.135 1.347 3.968.578.833 1.303 1.172 2.174 1.018 1.29-.227 2.1-1.295 2.428-3.204.328-1.91.173-4.677-.467-8.302l7.566 5.298c-.617 2.409-1.631 4.304-3.041 5.685-1.41 1.38-3.23 2.268-5.462 2.661-3.416.603-6.338-.221-8.765-2.47-2.428-2.25-4.026-5.554-4.794-9.912L217.5 234.42c-3.194 2.684-7.213 4.453-12.058 5.308-5.822 1.026-11.134-.05-15.936-3.23-4.802-3.178-7.752-7.78-8.85-13.805-.873-4.95-.16-9.47 2.138-13.56 2.298-4.089 5.56-6.488 9.783-7.197 3.591-.633 6.794-.254 9.61 1.136 2.814 1.391 5.228 3.814 7.239 7.27-3.925-1.465-7.752-1.869-11.482-1.21-4.846.854-8.571 2.76-11.177 5.717-2.606 2.958-3.573 6.444-2.9 10.46.63 3.374 2.357 6.08 5.178 8.117 2.821 2.037 6.115 2.723 9.88 2.06 3.276-.579 6.282-1.98 9.017-4.206 2.735-2.225 5.195-5.292 7.382-9.2l-4.85-27.505zm-90.562 82.882l-7.89 1.391-6.315-35.813c-.524-2.973-1.245-4.921-2.162-5.844-1.186-1.111-3.289-1.401-6.307-.869l-4.734.835c4.64 3.049 7.791 9.284 9.453 18.707 1.604 9.102.82 15.89-2.352 20.363-2.72 3.828-7.603 6.363-14.647 7.605-16.145 2.847-25.642-3.802-28.488-19.948-.79-4.482-.819-8.651-.083-12.506.899-4.262 2.6-7.18 5.106-8.753l-3.43.605c-3.43.605-5.824 3.078-7.181 7.42-1.26 4.09-1.406 8.879-.438 14.367.702 3.98 2.006 7.9 3.913 11.76 2.74 5.648 5.735 8.186 8.982 7.613l1.373-.242.52 2.95-1.372.242c-4.62.815-8.55-1.817-11.792-7.895-2.114-3.966-3.639-8.602-4.574-13.907-1.113-6.312-.897-11.774.648-16.385 1.693-5.109 4.826-8.067 9.4-8.873l11.938-2.105.52 2.95-.48.085c-4.025.71-6.2 3.616-6.527 8.72-.146 2.384.31 6.571 1.366 12.563 1.275 7.227 3.395 12.3 6.363 15.22 3.236 3.107 7.804 4.141 13.704 3.1 6.038-1.064 10.228-3.241 12.572-6.531 2.75-3.928 3.42-9.894 2.008-17.898-1.04-5.9-2.84-10.488-5.397-13.763-2.567-3.32-5.474-4.694-8.72-4.121l-.481.085-.52-2.95 17.769-3.134c3.064-.54 5.666.039 7.805 1.737 2.184 1.69 3.563 4.158 4.135 7.406l6.315 35.813zm-35.251-45.85l-7.89 1.391-.266-1.509c-3.44-2.93-7.242-4.028-11.404-3.295-2.47.436-4.917 1.67-7.342 3.7-2.424 2.031-5.169 3.317-8.233 3.857-5.992 1.057-9.842-3.264-11.552-12.96-1.315-7.455.369-14.355 5.051-20.698 4.674-6.39 10.945-10.277 18.812-11.665 10.062-1.774 15.92 2.027 17.574 11.404l5.25 29.775zm-8.918-4.44l-4.222-23.944c-.734-4.162-1.369-6.692-1.904-7.588-1.272-2.133-3.692-2.886-7.26-2.257-7.09 1.25-12.722 4.743-16.899 10.479-4.184 5.69-5.695 11.827-4.534 18.414 1.363 7.73 4.057 11.24 8.082 10.53 2.561-.452 5.077-1.697 7.547-3.736 2.424-2.031 5.1-3.305 8.027-3.82 4.3-.759 8.02-.118 11.163 1.922z"/>
		<path fill-rule="evenodd" clip-rule="evenodd" d="M1299.638 141.756c6.8.239 12.097 1.605 15.892 4.1 5.262 3.48 8.439 8.312 9.529 14.494.827 4.694.135 9.465-2.077 14.312-2.221 4.801-5.758 8.66-10.612 11.576-4.815 2.862-12.544 5.232-23.188 7.109l-44.622 7.868-.455-2.58 3.556-.627c3.95-.697 6.565-2.452 7.842-5.265.782-1.815.706-5.372-.228-10.671l-10.77-61.075c-1.032-5.857-2.357-9.433-3.976-10.73-2.173-1.725-5.05-2.272-8.628-1.641l-3.556.627-.455-2.58 40.856-7.204c7.623-1.344 13.834-1.864 18.632-1.56 7.267.444 13.114 2.48 17.54 6.109 4.417 3.582 7.114 8.14 8.09 13.67.835 4.741.144 9.248-2.074 13.521-2.226 4.227-5.991 7.743-11.296 10.547zm-37.197 2.677c1.777.022 3.774-.067 5.992-.266 2.255-.254 4.708-.614 7.357-1.082 6.786-1.196 11.749-2.814 14.888-4.853 3.177-2.094 5.406-4.811 6.686-8.152 1.28-3.341 1.604-6.801.973-10.38-.975-5.531-4.061-9.852-9.258-12.961-5.197-3.11-12.118-3.902-20.764-2.378-4.648.82-8.741 2.07-12.28 3.747l6.406 36.325zm7.966 45.179c5.613.304 11.046-.007 16.298-.933 8.413-1.483 14.495-4.497 18.247-9.04 3.744-4.59 5.124-9.674 4.14-15.252-.647-3.672-2.27-7.028-4.866-10.069-2.597-3.04-6.322-5.14-11.175-6.297-4.853-1.157-10.602-1.15-17.25.023-2.881.508-5.336.989-7.365 1.442-2.029.454-3.65.908-4.864 1.361l6.835 38.765z"/>
		<path d="M1339.853 294.078l-19.13 3.373-6.06-34.365c-1.009-5.727-6.478-7.715-16.405-5.965-7.79 1.374-11.025 5.802-9.705 13.286 1.01 5.728 4.722 8.026 11.137 6.895l8.133-1.434 4.08 23.139-17.984 3.17c-4.888.862-9.674-1.05-14.358-5.735-4.891-4.965-8.017-11.303-9.377-19.016-1.63-9.24.034-17.447 4.99-24.62 4.955-7.174 12.494-12.204 22.615-15.09 14.608-4.23 24.462-9.078 29.561-14.544l12.503 70.906zm-38.17-224.998l-7.89 1.39-6.315-35.813c-.524-2.973-1.245-4.92-2.162-5.844-1.186-1.111-3.289-1.4-6.307-.868l-4.734.834c4.64 3.05 7.791 9.285 9.453 18.707 1.604 9.102.82 15.89-2.352 20.363-2.72 3.829-7.603 6.364-14.646 7.606-16.146 2.847-25.642-3.803-28.49-19.949-.79-4.482-.817-8.65-.082-12.506.899-4.262 2.6-7.18 5.106-8.753l-3.43.605c-3.43.605-5.824 3.079-7.18 7.42-1.26 4.09-1.407 8.879-.439 14.368.702 3.979 2.006 7.899 3.913 11.76 2.74 5.648 5.735 8.185 8.982 7.613l1.373-.242.52 2.95-1.372.242c-4.62.814-8.55-1.818-11.791-7.896-2.115-3.966-3.64-8.602-4.575-13.907-1.113-6.312-.897-11.774.648-16.385 1.693-5.109 4.827-8.066 9.4-8.873l11.938-2.105.52 2.95-.48.085c-4.025.71-6.2 3.616-6.527 8.72-.146 2.384.31 6.572 1.366 12.563 1.275 7.227 3.395 12.3 6.363 15.22 3.236 3.108 7.804 4.141 13.704 3.1 6.038-1.064 10.228-3.241 12.572-6.531 2.75-3.928 3.42-9.894 2.008-17.898-1.04-5.9-2.84-10.488-5.397-13.762-2.567-3.32-5.473-4.694-8.72-4.122l-.481.085-.52-2.95 17.77-3.134c3.064-.54 5.665.039 7.804 1.737 2.184 1.69 3.563 4.159 4.135 7.406l6.315 35.813zm-35.251-45.85l-7.89 1.39-.266-1.509c-3.44-2.93-7.242-4.028-11.404-3.294-2.47.435-4.917 1.668-7.342 3.7-2.424 2.03-5.168 3.316-8.233 3.856-5.992 1.057-9.842-3.263-11.552-12.96-1.315-7.455.37-14.355 5.051-20.698 4.674-6.389 10.945-10.277 18.812-11.664 10.063-1.775 15.92 2.026 17.574 11.403l5.25 29.776zm-8.918-4.44l-4.222-23.945c-.734-4.162-1.369-6.691-1.904-7.587-1.272-2.134-3.692-2.886-7.26-2.257-7.09 1.25-12.722 4.743-16.899 10.478-4.184 5.69-5.695 11.828-4.534 18.414 1.363 7.73 4.057 11.24 8.082 10.53 2.561-.451 5.077-1.697 7.547-3.736 2.424-2.03 5.1-3.304 8.027-3.82 4.3-.758 8.02-.118 11.163 1.922zM1013.063-93.015a6.024 6.024 0 0 0-6.999-4.9c-3.353.59-5.6 3.664-5.008 7.017.572 3.245 3.753 5.472 7.106 4.881 3.246-.572 5.473-3.753 4.9-6.998zm-23.149 4.081a6.024 6.024 0 0 0-6.998-4.9c-3.354.591-5.6 3.664-5.009 7.018.572 3.245 3.754 5.472 7.107 4.88 3.245-.571 5.472-3.752 4.9-6.998zm59.705 79.258c-.153-.865-.898-1.292-1.35-1.324-8.825.553-12.725-3.221-15.644-8.394l-33.467-58.231c-.185-.414-.802-.751-1.667-.599-.757.134-1.241.554-1.362 1.133L981.784-10.43c-1.687 6.878-3.183 11.046-10.64 13.03-.414.184-1.076.859-.923 1.724.044.884.483 1.476 1.024 1.38 5.084-.896 7.241-1.945 12-2.784 5.95-1.05 7.58-.667 13.961-1.793.433-.076.751-.801.599-1.667-.153-.865-.484-1.476-.916-1.4-6.872.877-9.163-.726-9.678-3.647-.267-1.514-.05-3.449.274-5.402l3.21-17.854 22.283-3.929 9.46 16.958c.845 1.636 1.545 3.074 1.774 4.372.477 2.704-1.312 4.581-8.285 6.145-.433.077-.535.764-.382 1.63.152.865.7 1.437 1.132 1.361 7.14-1.259 10.162-2.46 16.868-3.643 5.95-1.05 8.336-.801 15.475-2.06.433-.076.751-.802.599-1.667zm-38.441-26.347l-19.795 3.49 5.393-29.504 14.402 26.014zM890.106 20.012l-.468.082c-7.186 1.267-14.438 1.016-21.756-.754-7.539-1.65-13.274-6.316-17.206-13.998-1.474-2.881-2.452-5.688-2.934-8.422a22.531 22.531 0 0 1-.289-5.747c.336-4.489 1.95-8.357 4.84-11.605-2.399-1.268-3.86-3.386-4.383-6.354l-.123-.703c-.358-3.4.324-6.379 2.048-8.938 2.38-3.399 5.594-5.496 9.641-6.29 4.062-.716 7.26-1.079 9.593-1.088 6.52-.022 11.527 2.115 15.022 6.411 2.1 2.771 3.549 6.421 4.347 10.951.207 1.172.388 2.428.544 3.77-3.115.147-6.351.516-9.71 1.108-1.64.29-3.312.624-5.017 1.006-5.086 1.299-8.546 2.916-10.379 4.85-2.09 2.301-3.14 5.023-3.15 8.165-.019.809.04 1.604.178 2.385.359 2.03 1.243 3.848 2.653 5.451 3.137 3.635 6.918 5.666 11.342 6.094 3.432.28 6.905.11 10.42-.509a40.27 40.27 0 0 0 3.025-.654c4.098-.964 7.82-2.466 11.165-4.505 3.437-1.975 6.136-4.706 8.098-8.193 2.17-3.684 3.355-7.92 3.558-12.707.147-3.73-.075-7.275-.667-10.634a28.933 28.933 0 0 0-.572-2.556c-2.438-9.717-7.242-19.91-13.986-21.226-13.128-.586-37.668 9.255-48.85 8.285-4.093-.355-8.01-2.882-9.071-7.945-.406-5.542 5.092-11.151 14.673-15.062 11.172-3.956 23.848-6.265 35.106-6.446 9.233-.053 15.696 3.224 17.653 9.394 2.589 8.162-6.897 14.248-11.166 10.158-11-8.123 2.018-.076 2.252-8.568-.915-5.683-15.824-3.807-26.568-1.36-14.806 3.014-22.684 6.399-21.788 11.118.35 1.841.743 3.293 7.54 2.01 10.834-2.098 37.517-9.75 43.486-7.58 6.2 1.415 8.372 5.006 12.272 9.311 3.964 4.214 6.955 9.525 8.97 15.934a55.021 55.021 0 0 1 1.447 6.147 59.31 59.31 0 0 1 .874 9.752c-.024 5.802-.893 11.15-2.607 16.042-2.004 5.991-5.471 10.991-10.401 15.001-4.917 4.089-11.469 6.895-19.656 8.419zm-8.614-48.854c-1.185-3.979-3.155-6.248-5.912-6.81-2.494-.445-4.25-.579-5.265-.4l-.351.062c1.024.786 1.794 2.18 2.308 4.184l.083.468c.303 1.718.185 3.108-.352 4.17.923-.244 2.237-.556 3.942-.937l1.171-.207a44.518 44.518 0 0 1 4.376-.53zm-88.667 10.517l3.84 42.909-40.737 7.183c2.78-3.723 4.693-7.445 5.737-11.168 1.078-3.729 1.288-7.458.63-11.186-.895-5.082-3.34-9.006-7.332-11.773-3.992-2.766-8.546-3.699-13.66-2.797-4.72.832-8.567 2.94-11.543 6.322-2.943 3.377-4.508 7.72-4.695 13.026 2.271-3.327 5.486-5.356 9.644-6.09 4.092-.721 7.605.004 10.54 2.174 2.961 2.132 4.777 5.095 5.446 8.89.692 3.927-.02 7.506-2.139 10.737-2.118 3.232-5.174 5.2-9.166 5.904-4.29.756-8.153-.213-11.588-2.908-3.408-2.733-5.537-6.509-6.387-11.327-1.408-7.985-.047-15.03 4.083-21.134 4.156-6.143 10.079-9.892 17.768-11.248 7.457-1.315 13.835-.262 19.134 3.159 5.299 3.42 8.521 8.382 9.667 14.882 1.083 6.138.337 12.139-2.235 18.002l17.72-3.124-3.587-38.87 8.86-1.563zM732.85 13.482c-2.145.378-3.785 1.399-4.92 3.062-1.11 1.625-1.48 3.476-1.114 5.555.355 2.013 1.37 3.62 3.045 4.822 1.702 1.163 3.593 1.561 5.672 1.195 2.079-.367 3.67-1.379 4.772-3.036 1.13-1.697 1.518-3.551 1.163-5.564-.378-2.145-1.413-3.766-3.103-4.863-1.697-1.13-3.535-1.52-5.515-1.171zm48.194-27.994c-4.472-3.363-7.068-7.09-7.79-11.182-1-5.676.04-10.486 3.12-14.432 3.049-3.94 7.625-6.448 13.73-7.525 5.18-.913 9.398-.245 12.653 2.005 3.255 2.25 5.27 5.57 6.043 9.959.186 1.056.332 2.17.436 3.342l4.785 53.766-3.96.699-4.162-47.343-.393-2.228c-.67-3.795-2.554-6.865-5.656-9.21-3.101-2.345-6.764-3.145-10.988-2.4-4.356.767-7.448 2.333-9.277 4.697-1.829 2.364-2.397 5.51-1.704 9.437.663 3.761 2.295 6.553 4.896 8.374l-1.733 2.04zm-136.201 13.2l.837 4.747-1.664 2.377c.427.063.88.365 1.357.906.477.54.934 1.258 1.37 2.154.435.895.84 1.917 1.217 3.066a25.72 25.72 0 0 1 .885 3.54c.32 1.819.373 3.198.156 4.139-.216.94-.599 2.015-1.15 3.223l15.555-2.743c-.605-2.254-1.14-4.103-1.603-5.55-.463-1.445-.919-2.65-1.366-3.612-.448-.962-.952-1.758-1.515-2.388-.562-.63-1.285-1.284-2.168-1.961l-1.069-6.06 2.995-4.278 6.364-1.122 2.055 1.616 1.14 6.465c-.467.499-.78 1.283-.939 2.352-.159 1.07-.245 2.352-.259 3.847a46.156 46.156 0 0 0 .231 4.854c.168 1.741.379 3.527.632 5.357l1.372.695 1.051 5.96-1.1 1.443 5.22 29.595c.082.471-.112.748-.583.831-.337.06-.883-.087-1.64-.44l-.119-.083a44.597 44.597 0 0 0-6.535-2.805 45.278 45.278 0 0 0-6.87-1.757 47.16 47.16 0 0 0-6.786-.678c-2.232-.058-4.324.086-6.277.43-1.616.285-2.803.737-3.562 1.357-.759.62-1.744 1.037-2.956 1.25-1.212.214-2.204-.097-2.977-.933-.772-.836-1.247-1.759-1.425-2.769-.19-1.077-.043-2.214.44-3.41.483-1.196 1.1-2.034 1.848-2.513l.048-.32c.186-1.7.497-3.577.933-5.633.436-2.056 1.528-4.036 3.275-5.941l-3.737.659-1.426-.998-.784-4.445 3.043-4.598 6.262-1.104c.464-.915.845-1.607 1.144-2.076.3-.47.324-1.411.075-2.826a11.596 11.596 0 0 0-1.179-3.437 8.037 8.037 0 0 0-2.412-2.751c-1.035-.755-2.277-1.3-3.725-1.634-1.447-.335-3.181-.325-5.202.032-3.703.653-6.27 1.748-7.7 3.284-1.43 1.537-1.99 3.18-1.682 4.931.226 1.28.887 2.274 1.984 2.983 1.097.71 2.578 1.038 4.444.987l1.71 9.696c-1.53-.008-2.9-.495-4.112-1.462a14.956 14.956 0 0 1-3.169-3.503 20.443 20.443 0 0 1-2.165-4.304c-.542-1.502-.914-2.825-1.116-3.97-.178-1.01-.253-2.124-.226-3.344a37.4 37.4 0 0 1 .253-3.586c.141-1.17.32-2.226.536-3.167.216-.94.423-1.636.62-2.088l2.348-4.996 19.798-3.491zm20.66 30.934l-20.707 3.65c-1.236 1.26-2.348 2.827-3.337 4.703-.988 1.875-1.47 4.06-1.447 6.556.637-.32 1.298-.61 1.981-.87.684-.26 1.328-.443 1.934-.55 3.704-.653 6.733-.7 9.088-.144 2.354.557 4.448 1.403 6.28 2.538a43.28 43.28 0 0 1 5.322 3.904c1.717 1.468 3.784 2.753 6.2 3.854l-5.315-23.641zm2-38.263c.096.54-.193.868-.867.987-.808.142-1.766-.175-2.875-.952-4.234-3.141-8.145-5.732-11.733-7.772-3.589-2.04-6.869-3.615-9.842-4.722-2.972-1.108-5.564-1.83-7.776-2.17-2.213-.339-4.026-.384-5.44-.134-2.963.522-4.278 1.726-3.945 3.611.308 1.751 1.256 2.99 2.842 3.717 1.586.727 3.558.883 5.915.467.404-.07.95-.22 1.64-.445a15.6 15.6 0 0 1 2.144-.534c1.28-.226 2.51.06 3.693.859 1.182.798 1.862 1.702 2.04 2.712.178 1.01-.053 2.058-.695 3.143-.642 1.085-1.737 1.764-3.286 2.037l-4.95.873a13.268 13.268 0 0 1-4.738.002 10.764 10.764 0 0 1-4.274-1.797c-1.307-.915-2.42-2.108-3.339-3.578-.918-1.47-1.568-3.281-1.948-5.436-.249-1.414.077-2.912.978-4.495.902-1.582 2.096-3.077 3.583-4.485a27.685 27.685 0 0 1 4.822-3.662c1.728-1.034 3.298-1.675 4.712-1.925 1.886-.332 4.079.097 6.58 1.288 2.501 1.19 5.088 2.765 7.759 4.724 2.671 1.96 5.328 4.13 7.97 6.51a414.828 414.828 0 0 1 7.211 6.644c.67.645 1.438 1.36 2.305 2.145.868.784 1.372 1.58 1.515 2.388zM536.499 82.362c-13.686 2.414-24.943.174-33.771-6.717-8.828-6.892-14.576-17.901-17.243-33.028-2.699-15.307-1.071-27.663 4.883-37.068 5.955-9.406 15.775-15.315 29.46-17.728 13.687-2.413 24.944-.174 33.772 6.718 8.828 6.891 14.575 17.9 17.243 33.027 2.667 15.127 1.031 27.438-4.907 36.933-5.939 9.496-15.751 15.45-29.437 17.863zm-1.238-7.023c6.302-1.111 11.427-3.64 15.373-7.584 2.68-2.701 4.701-5.982 6.063-9.843l-32.92-9.792-4.192-23.77-21.457-6.383-.087.294c-1.156 6.61-1.02 13.966.41 22.07 1.429 8.103 3.816 15.063 7.163 20.879 3.346 5.816 7.548 9.902 12.606 12.26 5.058 2.358 10.738 2.98 17.04 1.87zM558.2 52.216l.087-.294c1.155-6.61 1.019-13.966-.41-22.07-1.429-8.103-3.817-15.063-7.163-20.879-3.347-5.815-7.549-9.902-12.606-12.26-5.058-2.357-10.738-2.98-17.04-1.87-6.304 1.112-11.428 3.64-15.374 7.586-2.68 2.7-4.702 5.981-6.064 9.842l32.921 9.792 4.191 23.77 21.458 6.383zM425.872 4.395c-8.368 1.713-14.758 9.051-11.73 25.932l7.535 41.978c-.528.56-1.142 1.507-1.829 2.915-4.686 9.6-29.726 14.202-25.206-11.193 4.011-22.534-12.407-26.654-21.576-21.24-10.514 6.21-12.099 26.503-4.83 36.316 5.12 6.913 11.712 1.453 6.897-3.011-4.88-4.525-5.362-13.63-3.109-19.892 3.41-9.475 9.914-9.47 12.629-4.437 5.396 10.006-4.684 15.525 1.77 28.138 8.215 16.053 28.856 13.3 34.829 3.28a19.195 19.195 0 0 0 1.7-3.739l2.967 16.544c2.23.292 4.336 1.68 6.246 4.698 1.906-.646 3.839-1.8 3.691-4.04l-10.725-60.826c-.673-2.872-5.643-2.412-5.643-2.412-1.989-10.24 3.49-22.767 10.54-22.315 6.178.395 10.932 5.488 13.77 20.421l10.646 59.245c2.123.4 3.554.061 6.246 4.698 1.059.807 4.076-1.608 3.794-3.46l-11.07-62.777c-3.96-22.466-14.203-25.423-23.857-25.223-1.254.025-2.49.155-3.685.4zM258.48 91.243c-.355-2.012-.524-5.547-.509-10.605.016-5.058.69-9.325 2.021-12.8 1.05-2.13 3.82-4.433 8.31-6.91 4.489-2.477 10.102-4.828 16.84-7.053a195.102 195.102 0 0 1 20.222-5.51l12.38-2.572c1.907-.207 3.405.016 4.492.666 1.087.651 1.752 1.668 1.996 3.051l8.08 45.825-18.103 3.192-7.382-41.864c-6.198 1.61-11.115 3.126-14.754 4.545a65.376 65.376 0 0 0-10.372 5.135c-3.277 2.004-5.921 5.386-7.933 10.149-.378 2.27-.46 4.196-.245 5.779.214 1.582.562 3.368 1.042 5.358 1.028 2.152 1.124 3.982.288 5.49-.836 1.51-2.7 2.518-5.591 3.028l-4.193-.621c-1.701-.09-3.164-.48-4.387-1.171-1.224-.692-1.958-1.73-2.202-3.112z"/>
		<path fill-rule="evenodd" clip-rule="evenodd" d="M217.423 43.06c-.164-.93-.86-1.765-1.39-1.672-6.64 1.171-9.686 2.53-16.06 3.654-6.373 1.123-10.364 1.006-16.472 2.083-.531.093-.898 1.116-.735 2.046.188 1.062.86 1.765 1.39 1.672 13.161-.678 14.848 1.9 16.066 8.804l7.117 40.366c4.027 22.84-3.972 34.929-20.438 37.832-15.402 2.716-27.391-1.605-31.863-26.967L147.64 68.92c-1.218-6.905-.78-9.857 11.819-13.722.53-.093.922-.984.734-2.046-.164-.93-.859-1.765-1.39-1.671-8.763 1.545-12.208 2.974-20.44 4.425-8.233 1.452-11.826 1.264-20.59 2.81-.664.116-.898 1.116-.734 2.045.187 1.063.726 1.79 1.39 1.672 13.16-.678 14.45 1.97 15.667 8.875l7.726 43.819c3.512 19.917 18.116 33.634 44.009 29.069 23.237-4.097 29.777-22.912 26.124-43.626l-7.352-41.694c-1.24-7.038-.514-9.904 12.085-13.769.531-.093.923-.984.735-2.046z"/>
		<path d="M85.96 122.198c1.513 8.583-.551 17.615-6.194 27.094-6.075 10.141-13.812 16.04-23.211 17.698-4.54.8-9.253-.106-14.139-2.719-4.886-2.613-7.623-5.586-8.21-8.92-.914-5.178-.173-9.277 2.22-12.296 1.23-1.533 5.024-4.488 11.383-8.864 1.413-.907 2.403-1.41 2.97-1.511.462-.081.723.055.786.41.119.674-.523 2.323-1.925 4.948-2.346 4.326-3.03 8.122-2.052 11.387 1.829 6.224 6.253 8.498 13.271 6.822 6.422-1.535 11.193-5.174 14.313-10.917 3.201-5.904 4.073-12.988 2.616-21.252-3.54-20.076-12.304-29.026-26.293-26.852-4.062.607-6.931 2.795-8.607 6.564-1.282 2.896-1.744 6.287-1.388 10.174-1.087 1.509-2.122 2.587-3.105 3.236-.459.3-1.906 1.012-4.34 2.137-.393-.772-.683-1.69-.87-2.755-.851-4.823.294-9.944 3.435-15.362 3.508-6.03 8.159-9.52 13.953-10.47 7.757-1.22 15.022.99 21.796 6.635 7.197 5.972 11.727 14.243 13.59 24.813zM34.958 81.545c-.387-2.199.061-4.216 1.347-6.052 1.285-1.836 3.027-2.948 5.227-3.335 2.199-.388 4.216.06 6.052 1.346 1.836 1.286 2.947 3.028 3.335 5.227.388 2.199-.061 4.216-1.346 6.052-1.286 1.836-3.028 2.948-5.227 3.335-2.2.388-4.217-.06-6.053-1.346-1.835-1.285-2.947-3.028-3.335-5.227zM315.487-1.694l-48.859 8.615-1.177-6.677c8.923-7.17 12.442-16.104 10.556-26.798-1.254-7.112-4.627-12.59-10.12-16.436-5.491-3.845-11.739-5.15-18.742-3.916-7.111 1.254-12.499 4.667-16.162 10.239-3.664 5.572-4.859 11.968-3.586 19.188C229.56-5.21 236.511 1.988 248.25 4.117l-2.756 7.706c-14.803-3.323-23.56-12.666-26.269-28.03-1.684-9.554.1-18.083 5.354-25.586 5.254-7.504 12.604-12.088 22.05-13.754 9.338-1.646 17.54.112 24.608 5.275 7.068 5.163 11.444 12.521 13.128 22.076 1.905 10.803.266 19.125-4.917 24.964l25.488-4.494-9.678-54.884 9.202-1.623 11.027 62.54z"/>
		<path d="M333.047-4.958l-8.794 1.55-13.239-75.079c-1.091-6.189-4.66-8.806-10.704-7.852-2.57.341-4.582 1.633-6.034 3.876-1.451 2.244-1.952 4.64-1.502 7.192.536 3.04 1.345 5.249 2.427 6.625L286-67.023c-.885-2.475-1.513-4.771-1.887-6.889-.919-5.211-.09-9.793 2.488-13.746 2.578-3.953 6.635-6.418 12.172-7.394 5.103-.9 9.617-.143 13.541 2.272 3.925 2.415 6.356 6.282 7.294 11.602l13.44 76.22zM174.44-62.975c4.06-.716 7.68-.508 10.86.622 3.178 1.13 5.898 3.309 8.158 6.534 2.26 3.226 3.85 7.455 4.773 12.687.524 2.968.388 5.851-.407 8.649-.81 2.72-2.215 5.02-4.219 6.904-2.003 1.883-4.45 3.08-7.34 3.59-1.64.288-3.941.251-6.904-.112-1.144.363-1.886 1.178-2.226 2.446a8.625 8.625 0 0 0-.18 3.776c.055.313.156.657.303 1.034.211.285.33.505.358.662.776 2.118 1.302 3.958 1.578 5.52.123.703.259 1.927.406 3.673.454 2.577.277 5.225-.532 7.945-.73 2.706-1.933 5.253-3.605 7.642a25.155 25.155 0 0 1-6.162 6.16c-2.449 1.64-5 2.693-7.656 3.162-8.279 1.46-14.938.46-19.977-3-4.975-3.553-8.11-9-9.404-16.341.708-2.38.78-5.17.215-8.373-.51-2.89-2.108-4.42-4.796-4.59-2.288.726-3.822 1.157-4.603 1.295-2.5.44-4.84.41-7.022-.09-2.196-.58-4.201-1.676-6.016-3.288-1.736-1.627-3.236-3.738-4.499-6.334-1.185-2.61-2.1-5.75-2.748-9.42l-.138-.097c-.55-3.124-.045-6.193 1.517-9.206 1.549-3.092 3.904-5.722 7.065-7.89 3.239-2.181 6.811-3.617 10.716-4.305 3.749-.661 7.061-.601 9.937.18 2.862.704 5.313 2.043 7.352 4.019 2.04 1.976 3.68 4.425 4.92 7.347 1.304 2.83 2.28 6.08 2.927 9.75.854 4.843 1.225 10.375 1.114 16.595-.727 5.926-.85 10.256-.367 12.99.688 3.905 2.22 6.654 4.595 8.249 2.453 1.58 5.593 2.034 9.42 1.359 4.218-.744 6.93-2.712 8.14-5.905 1.286-3.206 1.454-7.504.504-12.893l-.351-1.992a14.452 14.452 0 0 0-.427-1.736c-5.54-9.492-8.873-17.44-10.002-23.845-1.033-5.857-.435-10.915 1.793-15.174 2.215-4.336 6.525-7.07 12.93-8.199zm.473 8.856c-3.124.55-5.37 2.195-6.74 4.933-1.291 2.724-1.648 5.726-1.07 9.006.552 3.124 1.888 5.909 4.01 8.353 2.2 2.43 4.745 3.391 7.635 2.881 2.89-.509 4.91-2.073 6.058-4.692 1.135-2.696 1.38-5.88.732-9.55-.4-2.265-1.155-4.266-2.266-6.003-1.126-1.815-2.449-3.152-3.97-4.011-1.442-.873-2.905-1.179-4.389-.917zm-50.609 6.87c-3.358.592-5.663 2.367-6.912 5.326-1.264 2.88-1.49 6.624-.677 11.232 1.225 6.951 5.001 9.869 11.327 8.754 3.046-.538 5.19-2.083 6.43-4.637 1.32-2.568 1.717-5.336 1.194-8.304-.648-3.67-1.883-6.795-3.706-9.372-1.824-2.578-4.376-3.577-7.656-3zM74.73 29.749L55.6 33.122 49.54-1.243C48.53-6.971 43.062-8.96 33.134-7.21c-7.79 1.374-11.024 5.803-9.705 13.286 1.01 5.728 4.723 8.026 11.137 6.895l8.133-1.434 4.08 23.139-17.984 3.171c-4.887.862-9.673-1.05-14.358-5.736C9.546 27.148 6.42 20.809 5.06 13.096c-1.629-9.24.034-17.447 4.99-24.62 4.956-7.173 12.494-12.203 22.615-15.09 14.609-4.23 24.463-9.077 29.562-14.544L74.73 29.75z"/>
	</g>
	<defs>
		<clipPath id="clip0">
			<path fill="#fff" d="M0 0h1280v320H0z"/>
		</clipPath>
	</defs>
</svg>